<svg xmlns="http://www.w3.org/2000/svg" xmlns:xlink="http://www.w3.org/1999/xlink" width="500" zoomAndPan="magnify" viewBox="0 0 375 374.999991" height="500" preserveAspectRatio="xMidYMid meet" version="1.0"><rect x="-37.5" width="450" fill="#ffffff" y="-37.499999" height="449.999989" fill-opacity="1"/><rect x="-37.5" width="450" fill="#ffffff" y="-37.499999" height="449.999989" fill-opacity="1"/><rect x="-37.5" width="450" fill="#ffffff" y="-37.499999" height="449.999989" fill-opacity="1"/><path fill="#000000" d="M 287.0625 237.484375 L 287.707031 236.1875 L 276.730469 230.699219 L 276.085938 232 C 273.75 236.675781 269.050781 239.582031 263.816406 239.582031 C 258.582031 239.582031 253.882812 236.675781 251.546875 232 L 250.902344 230.703125 L 239.925781 236.195312 L 240.570312 237.488281 C 245 246.347656 253.90625 251.851562 263.816406 251.851562 C 273.726562 251.851562 282.632812 246.347656 287.0625 237.484375 Z M 287.0625 237.484375 " fill-opacity="1" fill-rule="nonzero"/><path fill="#000000" d="M 255.882812 194.835938 L 247.207031 186.164062 L 245.410156 187.960938 C 242.140625 191.242188 236.421875 191.242188 233.140625 187.960938 L 231.34375 186.164062 L 222.667969 194.835938 L 224.457031 196.636719 C 228.414062 200.59375 233.675781 202.769531 239.273438 202.769531 C 244.875 202.769531 250.136719 200.59375 254.085938 196.636719 Z M 255.882812 194.835938 " fill-opacity="1" fill-rule="nonzero"/><path fill="#000000" d="M 288.359375 202.769531 C 293.960938 202.769531 299.21875 200.59375 303.167969 196.636719 L 304.964844 194.835938 L 296.289062 186.164062 L 294.492188 187.960938 C 291.222656 191.242188 285.503906 191.242188 282.222656 187.960938 L 280.425781 186.164062 L 271.75 194.835938 L 273.539062 196.636719 C 277.5 200.59375 282.757812 202.769531 288.359375 202.769531 Z M 288.359375 202.769531 " fill-opacity="1" fill-rule="nonzero"/><path fill="#000000" d="M 267.210938 226.667969 L 272.695312 215.683594 L 265.914062 212.296875 L 269.308594 205.511719 L 258.324219 200.027344 L 249.449219 217.785156 Z M 267.210938 226.667969 " fill-opacity="1" fill-rule="nonzero"/><path fill="#000000" d="M 85.894531 80.066406 C 85.894531 80.46875 85.855469 80.867188 85.777344 81.261719 C 85.695312 81.65625 85.582031 82.039062 85.425781 82.414062 C 85.273438 82.785156 85.082031 83.140625 84.859375 83.472656 C 84.636719 83.808594 84.382812 84.117188 84.097656 84.402344 C 83.8125 84.6875 83.503906 84.941406 83.167969 85.167969 C 82.832031 85.390625 82.476562 85.578125 82.105469 85.734375 C 81.734375 85.886719 81.351562 86.003906 80.957031 86.082031 C 80.558594 86.160156 80.160156 86.199219 79.757812 86.199219 C 79.355469 86.199219 78.957031 86.160156 78.5625 86.082031 C 78.167969 86.003906 77.78125 85.886719 77.410156 85.734375 C 77.039062 85.578125 76.683594 85.390625 76.351562 85.167969 C 76.015625 84.941406 75.703125 84.6875 75.421875 84.402344 C 75.136719 84.117188 74.882812 83.808594 74.65625 83.472656 C 74.433594 83.140625 74.246094 82.785156 74.089844 82.414062 C 73.9375 82.039062 73.820312 81.65625 73.742188 81.261719 C 73.664062 80.867188 73.625 80.46875 73.625 80.066406 C 73.625 79.664062 73.664062 79.261719 73.742188 78.867188 C 73.820312 78.472656 73.9375 78.089844 74.089844 77.71875 C 74.246094 77.34375 74.433594 76.992188 74.65625 76.65625 C 74.882812 76.320312 75.136719 76.011719 75.421875 75.726562 C 75.703125 75.441406 76.015625 75.1875 76.351562 74.964844 C 76.683594 74.738281 77.039062 74.550781 77.410156 74.398438 C 77.78125 74.242188 78.167969 74.125 78.5625 74.046875 C 78.957031 73.96875 79.355469 73.929688 79.757812 73.929688 C 80.160156 73.929688 80.558594 73.96875 80.957031 74.046875 C 81.351562 74.125 81.734375 74.242188 82.105469 74.398438 C 82.476562 74.550781 82.832031 74.738281 83.167969 74.964844 C 83.503906 75.1875 83.8125 75.441406 84.097656 75.726562 C 84.382812 76.011719 84.636719 76.320312 84.859375 76.65625 C 85.082031 76.992188 85.273438 77.34375 85.425781 77.71875 C 85.582031 78.089844 85.695312 78.472656 85.777344 78.867188 C 85.855469 79.261719 85.894531 79.664062 85.894531 80.066406 Z M 85.894531 80.066406 " fill-opacity="1" fill-rule="nonzero"/><path fill="#000000" d="M 134.976562 80.066406 C 134.976562 80.46875 134.9375 80.867188 134.859375 81.261719 C 134.78125 81.65625 134.664062 82.039062 134.507812 82.414062 C 134.355469 82.785156 134.164062 83.140625 133.941406 83.472656 C 133.71875 83.808594 133.464844 84.117188 133.179688 84.402344 C 132.894531 84.6875 132.585938 84.941406 132.25 85.167969 C 131.914062 85.390625 131.5625 85.578125 131.1875 85.734375 C 130.816406 85.886719 130.433594 86.003906 130.039062 86.082031 C 129.640625 86.160156 129.242188 86.199219 128.839844 86.199219 C 128.4375 86.199219 128.039062 86.160156 127.644531 86.082031 C 127.25 86.003906 126.863281 85.886719 126.492188 85.734375 C 126.121094 85.578125 125.765625 85.390625 125.433594 85.167969 C 125.097656 84.941406 124.789062 84.6875 124.503906 84.402344 C 124.21875 84.117188 123.964844 83.808594 123.738281 83.472656 C 123.515625 83.140625 123.328125 82.785156 123.171875 82.414062 C 123.019531 82.039062 122.902344 81.65625 122.824219 81.261719 C 122.746094 80.867188 122.707031 80.46875 122.707031 80.066406 C 122.707031 79.664062 122.746094 79.261719 122.824219 78.867188 C 122.902344 78.472656 123.019531 78.089844 123.171875 77.71875 C 123.328125 77.34375 123.515625 76.992188 123.738281 76.65625 C 123.964844 76.320312 124.21875 76.011719 124.503906 75.726562 C 124.789062 75.441406 125.097656 75.1875 125.433594 74.964844 C 125.765625 74.738281 126.121094 74.550781 126.492188 74.398438 C 126.863281 74.242188 127.25 74.125 127.644531 74.046875 C 128.039062 73.96875 128.4375 73.929688 128.839844 73.929688 C 129.242188 73.929688 129.640625 73.96875 130.039062 74.046875 C 130.433594 74.125 130.816406 74.242188 131.1875 74.398438 C 131.5625 74.550781 131.914062 74.738281 132.25 74.964844 C 132.585938 75.1875 132.894531 75.441406 133.179688 75.726562 C 133.464844 76.011719 133.71875 76.320312 133.941406 76.65625 C 134.164062 76.992188 134.355469 77.34375 134.507812 77.71875 C 134.664062 78.089844 134.78125 78.472656 134.859375 78.867188 C 134.9375 79.261719 134.976562 79.664062 134.976562 80.066406 Z M 134.976562 80.066406 " fill-opacity="1" fill-rule="nonzero"/><path fill="#000000" d="M 92.027344 115.429688 L 91.386719 114.132812 L 80.410156 119.625 L 81.054688 120.921875 C 85.484375 129.777344 94.390625 135.28125 104.300781 135.28125 C 114.207031 135.28125 123.117188 129.777344 127.546875 120.914062 L 128.191406 119.621094 L 117.214844 114.128906 L 116.570312 115.429688 C 114.234375 120.105469 109.53125 123.011719 104.300781 123.011719 C 99.066406 123.011719 94.367188 120.105469 92.027344 115.429688 Z M 92.027344 115.429688 " fill-opacity="1" fill-rule="nonzero"/><path fill="#000000" d="M 113.175781 99.113281 L 105.667969 95.359375 L 110.121094 82.003906 L 98.476562 78.125 L 90.660156 101.582031 L 107.691406 110.097656 Z M 113.175781 99.113281 " fill-opacity="1" fill-rule="nonzero"/><path fill="#000000" d="M 376.332031 343.757812 C 373.464844 322.265625 362.324219 303.339844 346.347656 290.160156 C 351.667969 283.835938 354.949219 276.050781 355.6875 267.742188 C 363.429688 262.570312 368.117188 253.921875 368.117188 244.421875 C 368.117188 235.625 363.914062 227.230469 356.882812 221.957031 C 348.550781 215.703125 343.574219 205.753906 343.574219 195.339844 L 343.574219 178.230469 C 343.574219 134.25 307.792969 98.472656 263.816406 98.472656 C 219.839844 98.472656 184.058594 134.25 184.058594 178.230469 L 184.058594 178.976562 C 169.511719 170.003906 153.265625 163.804688 136.398438 161 L 134.976562 160.757812 L 134.976562 157.3125 C 147.597656 149.773438 156.054688 137.277344 158.621094 123.007812 L 159.515625 123.007812 C 173.050781 123.007812 184.058594 112 184.058594 98.464844 C 184.058594 91.5 181.113281 85.242188 176.445312 80.769531 C 181.363281 72.671875 184.058594 63.476562 184.058594 53.949219 C 184.058594 24.371094 159.996094 0.308594 130.410156 0.308594 C 124.625 0.308594 118.917969 1.234375 113.453125 3.0625 L 104.300781 6.109375 L 95.152344 3.0625 C 89.679688 1.234375 83.972656 0.308594 78.1875 0.308594 C 48.605469 0.308594 24.542969 24.371094 24.542969 53.949219 C 24.542969 63.476562 27.234375 72.667969 32.15625 80.777344 C 27.484375 85.25 24.542969 91.507812 24.542969 98.472656 C 24.542969 112.003906 35.546875 123.011719 49.082031 123.011719 L 49.976562 123.011719 C 52.542969 137.28125 61.003906 149.78125 73.625 157.320312 L 73.625 160.761719 L 61.519531 162.78125 C 25.871094 168.71875 0 199.265625 0 235.398438 L 0 264.125 C 0 283.226562 9.753906 300.089844 24.542969 310.003906 L 24.542969 315.191406 C 24.542969 324.714844 21.75 333.941406 16.46875 341.863281 C 13.71875 345.980469 12.269531 350.765625 12.269531 355.722656 C 12.269531 369.492188 23.472656 380.691406 37.242188 380.691406 L 381.257812 380.691406 Z M 349.519531 231.773438 C 353.476562 234.742188 355.84375 239.472656 355.84375 244.421875 C 355.84375 250.449219 352.496094 255.871094 347.058594 258.589844 L 343.574219 260.257812 L 343.574219 264.125 C 343.574219 271.203125 340.929688 277.882812 336.253906 283.042969 C 325.480469 276.523438 313.210938 272.300781 300.113281 271.210938 C 297.789062 271.019531 295.835938 269.511719 294.972656 267.46875 C 307.328125 259.894531 315.605469 247.539062 318.136719 233.445312 L 319.035156 233.445312 C 327.84375 233.445312 335.527344 228.742188 339.851562 221.746094 C 342.539062 225.519531 345.746094 228.945312 349.519531 231.773438 Z M 204.253906 315.003906 C 199.144531 320.121094 196.328125 326.917969 196.328125 334.152344 L 196.328125 368.421875 L 160.386719 368.421875 L 163.460938 345.378906 C 164.714844 335.953125 167.84375 327.109375 172.578125 318.949219 C 185.046875 317.179688 194.757812 307.132812 196.046875 294.523438 C 201.832031 290.835938 208.101562 288.039062 214.679688 286.144531 L 257.679688 339.898438 L 257.679688 368.421875 L 208.597656 368.421875 L 208.597656 334.152344 C 208.597656 330.195312 210.140625 326.476562 212.941406 323.679688 Z M 168.71875 276.394531 C 177.175781 276.394531 184.058594 283.269531 184.058594 291.730469 C 184.058594 300.191406 177.175781 307.070312 168.71875 307.070312 L 147.246094 307.070312 L 147.246094 276.394531 Z M 184.058594 264.125 L 183.921875 260.265625 L 180.53125 258.570312 C 175.136719 255.871094 171.789062 250.449219 171.789062 244.421875 C 171.789062 239.472656 174.15625 234.742188 178.113281 231.765625 C 181.886719 228.9375 185.09375 225.519531 187.78125 221.742188 C 192.109375 228.742188 199.789062 233.445312 208.597656 233.445312 L 209.496094 233.445312 C 212.023438 247.539062 220.300781 259.894531 232.660156 267.46875 C 231.796875 269.511719 229.84375 271.019531 227.515625 271.214844 C 215.8125 272.191406 204.476562 275.65625 194.238281 281.253906 C 192.222656 276.371094 188.835938 272.210938 184.574219 269.195312 C 184.265625 267.523438 184.058594 265.828125 184.058594 264.125 Z M 208.597656 221.175781 C 201.832031 221.175781 196.328125 215.671875 196.328125 208.90625 C 196.328125 202.136719 201.832031 196.636719 208.597656 196.636719 Z M 263.816406 327.921875 L 247.128906 307.070312 L 280.5 307.070312 Z M 290.320312 294.800781 L 237.3125 294.800781 L 228.257812 283.480469 C 228.347656 283.472656 228.433594 283.449219 228.527344 283.4375 C 238 282.65625 245.410156 274.601562 245.410156 265.105469 L 245.410156 260.332031 L 242.019531 258.636719 C 228.972656 252.117188 220.871094 239 220.871094 224.414062 L 220.871094 177.921875 C 232.460938 176.824219 243.570312 172.621094 253.019531 165.792969 C 266.679688 173.84375 282.246094 178.230469 298.523438 178.230469 L 306.761719 178.230469 L 306.761719 224.414062 C 306.761719 239 298.660156 252.117188 285.613281 258.632812 L 282.222656 260.332031 L 282.222656 265.105469 C 282.222656 274.601562 289.632812 282.65625 299.101562 283.4375 C 299.191406 283.441406 299.285156 283.460938 299.375 283.472656 Z M 319.035156 196.636719 C 325.800781 196.636719 331.304688 202.136719 331.304688 208.90625 C 331.304688 215.671875 325.800781 221.175781 319.035156 221.175781 Z M 263.816406 110.742188 C 301.027344 110.742188 331.304688 141.019531 331.304688 178.230469 L 331.304688 187.777344 C 327.679688 185.664062 323.523438 184.363281 319.035156 184.363281 L 319.035156 167.40625 C 319.035156 156.609375 313.035156 146.898438 303.371094 142.0625 L 297.878906 153.039062 C 302.917969 155.558594 306.203125 160.425781 306.695312 165.953125 L 298.515625 165.953125 C 277.773438 165.953125 258.269531 157.878906 243.605469 143.210938 L 234.929688 151.882812 C 237.21875 154.171875 239.632812 156.300781 242.117188 158.308594 C 235.71875 162.15625 228.574219 164.652344 221.152344 165.558594 C 221.722656 162.71875 223.109375 160.113281 225.207031 158.019531 L 216.527344 149.34375 C 211.414062 154.46875 208.597656 161.265625 208.597656 168.5 L 208.597656 184.363281 C 204.109375 184.363281 199.953125 185.664062 196.328125 187.777344 L 196.328125 178.230469 C 196.328125 141.019531 226.605469 110.742188 263.816406 110.742188 Z M 137.96875 173.8125 C 136.507812 177.433594 134.527344 180.707031 132.097656 183.597656 L 126.363281 176.714844 C 127.480469 175.835938 128.566406 174.910156 129.582031 173.890625 L 130.945312 172.53125 L 134.378906 173.101562 C 135.582031 173.304688 136.773438 173.574219 137.96875 173.8125 Z M 98.164062 183.8125 L 98.164062 196.09375 C 93.757812 195.347656 89.628906 193.738281 85.875 191.523438 L 93.292969 182.621094 C 94.882812 183.132812 96.507812 183.523438 98.164062 183.8125 Z M 110.433594 183.8125 C 112.089844 183.523438 113.71875 183.132812 115.304688 182.621094 L 122.722656 191.523438 C 118.960938 193.738281 114.839844 195.347656 110.433594 196.09375 Z M 159.515625 110.742188 L 159.515625 86.199219 C 166.285156 86.199219 171.789062 91.703125 171.789062 98.472656 C 171.789062 105.238281 166.285156 110.742188 159.515625 110.742188 Z M 36.8125 53.949219 C 36.8125 31.136719 55.371094 12.578125 78.1875 12.578125 C 82.648438 12.578125 87.046875 13.289062 91.269531 14.699219 L 104.300781 19.042969 L 117.335938 14.699219 C 121.558594 13.289062 125.949219 12.578125 130.410156 12.578125 C 153.226562 12.578125 171.789062 31.136719 171.789062 53.949219 C 171.789062 61.371094 169.660156 68.550781 165.75 74.832031 C 163.742188 74.304688 161.683594 73.929688 159.515625 73.929688 L 159.515625 56.972656 C 159.515625 46.175781 153.515625 36.460938 143.855469 31.628906 L 138.363281 42.601562 C 143.40625 45.132812 146.695312 49.996094 147.183594 55.523438 L 139.007812 55.523438 C 118.261719 55.523438 98.757812 47.449219 84.097656 32.78125 L 75.421875 41.457031 C 77.710938 43.746094 80.121094 45.875 82.605469 47.878906 C 76.207031 51.726562 69.066406 54.222656 61.640625 55.132812 C 62.210938 52.289062 63.597656 49.683594 65.695312 47.589844 L 57.007812 38.914062 C 51.898438 44.03125 49.082031 50.832031 49.082031 58.0625 L 49.082031 73.929688 C 46.917969 73.929688 44.855469 74.304688 42.847656 74.832031 C 38.941406 68.550781 36.8125 61.371094 36.8125 53.949219 Z M 36.8125 98.472656 C 36.8125 91.703125 42.316406 86.199219 49.082031 86.199219 L 49.082031 110.742188 C 42.316406 110.742188 36.8125 105.238281 36.8125 98.472656 Z M 61.351562 113.980469 L 61.351562 67.488281 C 72.941406 66.390625 84.054688 62.1875 93.5 55.359375 C 107.164062 63.40625 122.730469 67.792969 139.007812 67.792969 L 147.246094 67.792969 L 147.246094 113.980469 C 147.246094 128.566406 139.140625 141.683594 126.097656 148.199219 L 122.707031 149.898438 L 122.707031 163.417969 L 120.90625 165.214844 C 112.035156 174.082031 96.5625 174.082031 87.691406 165.214844 L 85.894531 163.417969 L 85.894531 149.898438 L 82.5 148.203125 C 69.457031 141.683594 61.351562 128.566406 61.351562 113.980469 Z M 77.652344 172.53125 L 79.015625 173.890625 C 80.035156 174.910156 81.121094 175.835938 82.238281 176.714844 L 76.5 183.597656 C 74.046875 180.675781 72.046875 177.363281 70.582031 173.707031 Z M 12.269531 264.125 L 12.269531 235.398438 C 12.269531 207.097656 31.320312 182.921875 58.265625 176.003906 C 65.027344 195.691406 83.453125 208.90625 104.300781 208.90625 C 124.839844 208.90625 142.980469 196.046875 149.976562 176.835938 C 162.136719 180.597656 173.675781 186.296875 184.058594 193.679688 L 184.058594 195.339844 C 184.058594 205.753906 179.082031 215.703125 170.75 221.957031 C 163.71875 227.230469 159.515625 235.625 159.515625 244.421875 C 159.515625 251.957031 162.503906 258.925781 167.671875 264.125 L 66.917969 264.125 L 62.273438 216.851562 C 61.507812 209.910156 58.359375 203.371094 53.417969 198.433594 L 44.746094 207.109375 C 47.71875 210.082031 49.609375 214.023438 50.070312 218.128906 L 54.960938 267.96875 L 44.738281 278.191406 L 53.414062 286.867188 L 63.894531 276.394531 L 134.976562 276.394531 L 134.976562 307.070312 L 55.21875 307.070312 C 31.535156 307.070312 12.269531 287.800781 12.269531 264.125 Z M 24.542969 355.722656 C 24.542969 353.710938 25.136719 351.796875 26.039062 350.015625 L 110.433594 350.015625 L 110.433594 337.746094 L 32.277344 337.746094 C 35.058594 330.882812 36.632812 323.59375 36.742188 316.09375 C 42.53125 318.15625 48.730469 319.339844 55.21875 319.339844 L 158.503906 319.339844 C 155.757812 325.207031 153.75 331.367188 152.429688 337.746094 L 122.707031 337.746094 L 122.707031 350.015625 L 150.46875 350.015625 L 148.011719 368.421875 L 37.242188 368.421875 C 30.242188 368.421875 24.542969 362.722656 24.542969 355.722656 Z M 331.304688 368.421875 L 331.304688 334.152344 C 331.304688 326.917969 328.488281 320.121094 323.378906 315.003906 L 314.695312 323.679688 C 317.492188 326.476562 319.035156 330.199219 319.035156 334.152344 L 319.035156 368.421875 L 269.953125 368.421875 L 269.953125 339.898438 L 313.007812 286.082031 C 339.757812 293.902344 360.390625 317.027344 364.171875 345.378906 L 367.246094 368.421875 Z M 331.304688 368.421875 " fill-opacity="1" fill-rule="nonzero"/></svg>