<svg xmlns="http://www.w3.org/2000/svg" xmlns:xlink="http://www.w3.org/1999/xlink" width="500" zoomAndPan="magnify" viewBox="0 0 375 374.999991" height="500" preserveAspectRatio="xMidYMid meet" version="1.0"><defs><clipPath id="801f9676ac"><path d="M 138 290 L 225 290 L 225 337.40625 L 138 337.40625 Z M 138 290 " clip-rule="nonzero"/></clipPath></defs><path fill="#000000" d="M 54.371094 265.675781 C 53.207031 265.675781 52.035156 265.523438 50.863281 265.191406 L 10.144531 253.855469 C 6.730469 252.90625 3.898438 250.679688 2.171875 247.585938 C 0.449219 244.496094 0.0390625 240.917969 1.019531 237.519531 L 32.488281 128.414062 C 34.484375 121.5 41.742188 117.445312 48.6875 119.375 L 89.402344 130.707031 C 92.820312 131.660156 95.648438 133.886719 97.375 136.980469 C 99.097656 140.070312 99.515625 143.648438 98.53125 147.054688 L 67.058594 256.160156 C 65.394531 261.894531 60.089844 265.675781 54.371094 265.675781 Z M 53.140625 257.007812 C 55.605469 257.699219 58.179688 256.253906 58.890625 253.796875 L 90.363281 144.691406 C 90.710938 143.488281 90.566406 142.210938 89.953125 141.117188 C 89.34375 140.019531 88.339844 139.230469 87.125 138.890625 L 46.398438 127.554688 C 43.933594 126.867188 41.359375 128.3125 40.644531 130.769531 L 9.175781 239.871094 C 8.828125 241.078125 8.972656 242.355469 9.585938 243.449219 C 10.195312 244.546875 11.199219 245.335938 12.414062 245.675781 Z M 53.140625 257.007812 " fill-opacity="1" fill-rule="nonzero"/><path fill="#000000" d="M 59.769531 171.820312 C 58.484375 171.820312 57.191406 171.640625 55.925781 171.292969 C 52.253906 170.273438 49.203125 167.886719 47.335938 164.574219 C 45.464844 161.261719 44.996094 157.410156 46.015625 153.75 C 48.125 146.179688 56.003906 141.738281 63.574219 143.84375 C 71.148438 145.949219 75.59375 153.824219 73.484375 161.394531 C 72.464844 165.066406 70.078125 168.117188 66.761719 169.984375 C 64.585938 171.199219 62.191406 171.820312 59.769531 171.820312 Z M 59.734375 151.8125 C 58.757812 151.8125 57.789062 152.066406 56.914062 152.558594 C 55.570312 153.316406 54.609375 154.546875 54.191406 156.027344 C 53.34375 159.085938 55.136719 162.261719 58.195312 163.113281 C 59.675781 163.527344 61.230469 163.332031 62.574219 162.578125 C 63.914062 161.820312 64.875 160.589844 65.292969 159.109375 C 66.140625 156.050781 64.347656 152.875 61.289062 152.023438 C 60.769531 151.878906 60.253906 151.8125 59.734375 151.8125 Z M 69.378906 160.25 Z M 69.378906 160.25 " fill-opacity="1" fill-rule="nonzero"/><path fill="#000000" d="M 320.550781 265.675781 C 314.824219 265.675781 309.519531 261.902344 307.863281 256.152344 L 276.394531 147.046875 C 275.417969 143.640625 275.824219 140.0625 277.550781 136.96875 C 279.273438 133.878906 282.105469 131.652344 285.519531 130.699219 L 326.246094 119.367188 C 333.179688 117.4375 340.445312 121.492188 342.445312 128.40625 L 373.914062 237.511719 C 374.890625 240.917969 374.484375 244.496094 372.757812 247.578125 C 371.03125 250.671875 368.203125 252.898438 364.785156 253.847656 L 324.0625 265.183594 C 322.890625 265.511719 321.707031 265.675781 320.550781 265.675781 Z M 329.765625 127.386719 C 329.347656 127.386719 328.929688 127.4375 328.515625 127.554688 L 287.789062 138.890625 C 286.574219 139.230469 285.574219 140.019531 284.960938 141.117188 C 284.347656 142.210938 284.203125 143.488281 284.550781 144.691406 L 316.023438 253.796875 C 316.726562 256.253906 319.3125 257.699219 321.777344 257.007812 L 362.492188 245.675781 C 363.707031 245.335938 364.710938 244.546875 365.320312 243.449219 C 365.933594 242.355469 366.078125 241.078125 365.730469 239.871094 L 334.261719 130.769531 C 333.683594 128.71875 331.796875 127.386719 329.765625 127.386719 Z M 327.375 123.460938 Z M 327.375 123.460938 " fill-opacity="1" fill-rule="nonzero"/><path fill="#000000" d="M 314.859375 171.820312 C 308.621094 171.820312 302.875 167.691406 301.125 161.386719 C 300.105469 157.71875 300.570312 153.878906 302.441406 150.5625 C 304.3125 147.25 307.363281 144.863281 311.035156 143.84375 C 318.605469 141.738281 326.484375 146.179688 328.589844 153.75 C 330.699219 161.320312 326.253906 169.195312 318.683594 171.300781 C 317.398438 171.652344 316.117188 171.820312 314.859375 171.820312 Z M 314.851562 151.8125 C 314.339844 151.8125 313.820312 151.878906 313.3125 152.023438 C 311.832031 152.441406 310.601562 153.402344 309.84375 154.742188 C 309.085938 156.085938 308.902344 157.632812 309.308594 159.117188 C 309.726562 160.597656 310.683594 161.828125 312.027344 162.585938 C 313.363281 163.339844 314.917969 163.527344 316.40625 163.121094 C 319.464844 162.269531 321.257812 159.09375 320.40625 156.035156 C 319.683594 153.484375 317.375 151.8125 314.851562 151.8125 Z M 314.851562 151.8125 " fill-opacity="1" fill-rule="nonzero"/><path fill="#000000" d="M 270.324219 266.226562 C 268.046875 266.226562 266.160156 264.425781 266.085938 262.132812 C 266 259.789062 267.828125 257.824219 270.171875 257.730469 C 270.386719 257.722656 291.386719 256.796875 307.789062 245.445312 C 309.714844 244.113281 312.367188 244.597656 313.703125 246.523438 C 315.035156 248.453125 314.550781 251.097656 312.625 252.4375 C 294.128906 265.234375 271.4375 266.191406 270.488281 266.226562 C 270.429688 266.226562 270.378906 266.226562 270.324219 266.226562 Z M 270.324219 266.226562 " fill-opacity="1" fill-rule="nonzero"/><path fill="#000000" d="M 78.601562 261.292969 C 77.511719 261.292969 76.425781 260.875 75.59375 260.050781 L 62.996094 247.460938 C 61.339844 245.804688 61.339844 243.109375 62.996094 241.453125 C 64.65625 239.796875 67.347656 239.796875 69.003906 241.453125 L 81.601562 254.042969 C 83.257812 255.699219 83.257812 258.394531 81.601562 260.050781 C 80.777344 260.882812 79.6875 261.292969 78.601562 261.292969 Z M 78.601562 261.292969 " fill-opacity="1" fill-rule="nonzero"/><g clip-path="url(#801f9676ac)"><path fill="#000000" d="M 162.003906 337.449219 C 156.453125 337.449219 150.914062 335.339844 146.691406 331.121094 L 139.441406 323.871094 C 137.785156 322.214844 137.785156 319.523438 139.441406 317.867188 C 141.097656 316.207031 143.792969 316.207031 145.449219 317.867188 L 152.699219 325.113281 C 157.832031 330.246094 166.175781 330.246094 171.308594 325.113281 C 173.800781 322.640625 175.167969 319.335938 175.167969 315.816406 C 175.167969 314.109375 174.847656 312.445312 174.207031 310.863281 C 173.554688 309.242188 172.585938 307.78125 171.320312 306.515625 C 169.660156 304.859375 169.660156 302.164062 171.320312 300.507812 C 172.976562 298.851562 175.671875 298.851562 177.328125 300.507812 L 193.464844 316.632812 C 198.597656 321.765625 206.945312 321.765625 212.078125 316.632812 C 214.558594 314.152344 215.9375 310.839844 215.9375 307.332031 C 215.9375 303.820312 214.566406 300.515625 212.078125 298.027344 C 210.421875 296.371094 210.421875 293.675781 212.078125 292.019531 C 213.734375 290.363281 216.429688 290.363281 218.085938 292.019531 C 222.171875 296.109375 224.425781 301.542969 224.425781 307.332031 C 224.425781 313.117188 222.171875 318.554688 218.085938 322.640625 C 209.636719 331.085938 195.894531 331.085938 187.457031 322.640625 L 183.488281 318.671875 C 182.875 323.386719 180.734375 327.738281 177.320312 331.136719 C 173.085938 335.339844 167.546875 337.449219 162.003906 337.449219 Z M 162.003906 337.449219 " fill-opacity="1" fill-rule="nonzero"/></g><path fill="#000000" d="M 234.472656 311.433594 C 228.921875 311.433594 223.378906 309.328125 219.15625 305.105469 L 179.511719 265.480469 C 177.855469 263.824219 177.855469 261.128906 179.511719 259.472656 C 181.167969 257.816406 183.863281 257.816406 185.519531 259.472656 L 225.15625 299.097656 C 230.289062 304.230469 238.636719 304.230469 243.769531 299.097656 C 248.902344 293.964844 248.902344 285.625 243.769531 280.492188 L 204.121094 240.867188 C 202.464844 239.210938 202.464844 236.515625 204.121094 234.859375 C 205.78125 233.203125 208.472656 233.203125 210.132812 234.859375 L 249.777344 274.484375 C 258.222656 282.929688 258.222656 296.667969 249.777344 305.105469 C 245.5625 309.328125 240.011719 311.433594 234.472656 311.433594 Z M 234.472656 311.433594 " fill-opacity="1" fill-rule="nonzero"/><path fill="#000000" d="M 253.140625 280.882812 C 247.355469 280.882812 241.914062 278.632812 237.828125 274.535156 C 236.171875 272.878906 236.171875 270.1875 237.828125 268.53125 C 239.484375 266.871094 242.179688 266.871094 243.835938 268.53125 C 246.328125 271.019531 249.625 272.386719 253.140625 272.386719 C 256.660156 272.386719 259.957031 271.019531 262.449219 268.53125 C 264.417969 266.550781 265.695312 264.050781 266.128906 261.316406 C 266.246094 260.613281 266.304688 259.921875 266.304688 259.226562 C 266.304688 255.71875 264.9375 252.414062 262.449219 249.914062 L 199.507812 186.996094 C 194.925781 182.414062 188.207031 180.664062 181.976562 182.414062 C 178.78125 183.316406 175.898438 185.082031 173.648438 187.53125 L 154.03125 208.820312 C 153.992188 208.863281 153.957031 208.90625 153.914062 208.949219 C 144.683594 218.175781 129.675781 218.175781 120.445312 208.949219 C 113.035156 201.539062 111.363281 190.359375 116.273438 181.125 C 122.582031 169.28125 133.476562 153.042969 149.589844 142.890625 C 149.648438 142.859375 149.707031 142.816406 149.765625 142.78125 C 163.015625 134.488281 177.539062 131.703125 192.921875 134.488281 C 195.234375 134.828125 227.253906 139.75 252.378906 156.960938 L 279.597656 145.203125 C 281.757812 144.277344 284.253906 145.261719 285.179688 147.421875 C 286.117188 149.570312 285.121094 152.074219 282.964844 153.003906 L 253.558594 165.703125 C 252.183594 166.296875 250.59375 166.121094 249.386719 165.246094 C 225.359375 147.878906 191.96875 142.933594 191.640625 142.890625 C 191.585938 142.882812 191.527344 142.875 191.476562 142.867188 C 178.152344 140.4375 165.582031 142.859375 154.125 150.078125 C 154.066406 150.113281 154.015625 150.148438 153.957031 150.179688 C 139.507812 159.347656 129.574219 174.226562 123.777344 185.117188 C 120.632812 191.03125 121.703125 198.191406 126.457031 202.941406 C 132.34375 208.828125 141.921875 208.855469 147.847656 203 L 167.402344 181.777344 C 170.714844 178.175781 174.964844 175.566406 179.679688 174.242188 C 188.867188 171.660156 198.777344 174.242188 205.523438 180.988281 L 268.464844 243.910156 C 272.550781 248.003906 274.804688 253.441406 274.804688 259.21875 C 274.804688 260.390625 274.710938 261.554688 274.523438 262.675781 C 273.820312 267.152344 271.726562 271.265625 268.472656 274.527344 C 264.367188 278.632812 258.929688 280.882812 253.140625 280.882812 Z M 253.140625 280.882812 " fill-opacity="1" fill-rule="nonzero"/><path fill="#000000" d="M 92.859375 156.085938 C 90.921875 156.085938 89.171875 154.753906 88.722656 152.78125 C 88.203125 150.496094 89.632812 148.21875 91.917969 147.691406 C 119.546875 141.40625 150.609375 142.203125 151.960938 142.238281 C 154.253906 142.296875 156.105469 144.175781 156.105469 146.484375 C 156.105469 148.871094 154.125 150.820312 151.730469 150.734375 C 150.457031 150.699219 120.414062 149.917969 93.804688 155.976562 C 93.488281 156.050781 93.175781 156.085938 92.859375 156.085938 Z M 92.859375 156.085938 " fill-opacity="1" fill-rule="nonzero"/><path fill="#000000" d="M 88.484375 278.179688 C 84.320312 278.179688 80.402344 276.558594 77.460938 273.617188 C 74.519531 270.679688 72.898438 266.761719 72.898438 262.597656 C 72.898438 258.4375 74.519531 254.527344 77.460938 251.582031 L 90.871094 238.171875 C 96.949219 232.097656 106.839844 232.097656 112.917969 238.171875 C 115.859375 241.113281 117.480469 245.03125 117.480469 249.191406 C 117.480469 253.355469 115.859375 257.273438 112.917969 260.210938 C 111.261719 261.867188 108.566406 261.867188 106.910156 260.210938 C 105.25 258.554688 105.25 255.863281 106.910156 254.207031 C 108.25 252.863281 108.984375 251.085938 108.984375 249.191406 C 108.984375 247.296875 108.242188 245.523438 106.910156 244.179688 C 104.148438 241.417969 99.652344 241.417969 96.878906 244.179688 L 83.46875 257.585938 C 82.128906 258.929688 81.398438 260.703125 81.398438 262.597656 C 81.398438 264.492188 82.136719 266.269531 83.46875 267.613281 C 84.8125 268.953125 86.589844 269.683594 88.484375 269.683594 C 90.378906 269.683594 92.15625 268.945312 93.5 267.613281 C 95.15625 265.957031 97.847656 265.957031 99.507812 267.613281 C 101.164062 269.269531 101.164062 271.960938 99.507812 273.617188 C 96.558594 276.558594 92.648438 278.179688 88.484375 278.179688 Z M 88.484375 278.179688 " fill-opacity="1" fill-rule="nonzero"/><path fill="#000000" d="M 99.734375 298.988281 C 95.742188 298.988281 91.757812 297.46875 88.714844 294.433594 C 85.773438 291.496094 84.148438 287.578125 84.148438 283.414062 C 84.148438 279.25 85.773438 275.335938 88.714844 272.394531 L 106.902344 254.214844 C 112.976562 248.140625 122.867188 248.140625 128.945312 254.214844 C 131.886719 257.164062 133.507812 261.070312 133.507812 265.234375 C 133.507812 269.394531 131.886719 273.3125 128.945312 276.253906 C 127.289062 277.910156 124.59375 277.910156 122.9375 276.253906 C 121.28125 274.597656 121.28125 271.902344 122.9375 270.246094 C 124.28125 268.902344 125.011719 267.128906 125.011719 265.234375 C 125.011719 263.339844 124.269531 261.5625 122.9375 260.21875 C 120.175781 257.460938 115.671875 257.460938 112.910156 260.21875 L 94.722656 278.402344 C 93.378906 279.746094 92.648438 281.519531 92.648438 283.414062 C 92.648438 285.308594 93.386719 287.085938 94.722656 288.425781 C 97.484375 291.1875 101.980469 291.1875 104.75 288.425781 C 106.40625 286.769531 109.101562 286.769531 110.757812 288.425781 C 112.414062 290.082031 112.414062 292.777344 110.757812 294.433594 C 107.726562 297.46875 103.730469 298.988281 99.734375 298.988281 Z M 99.734375 298.988281 " fill-opacity="1" fill-rule="nonzero"/><path fill="#000000" d="M 110.496094 320.304688 C 106.332031 320.304688 102.414062 318.679688 99.472656 315.742188 C 96.53125 312.800781 94.910156 308.886719 94.910156 304.722656 C 94.910156 300.558594 96.53125 296.652344 99.472656 293.703125 L 122.945312 270.238281 C 129.023438 264.164062 138.914062 264.164062 144.992188 270.238281 C 147.929688 273.183594 149.554688 277.09375 149.554688 281.257812 C 149.554688 285.417969 147.929688 289.335938 144.992188 292.277344 L 121.519531 315.742188 C 118.570312 318.679688 114.660156 320.304688 110.496094 320.304688 Z M 133.960938 274.171875 C 132.140625 274.171875 130.332031 274.859375 128.945312 276.242188 L 105.472656 299.710938 C 104.128906 301.050781 103.398438 302.828125 103.398438 304.722656 C 103.398438 306.617188 104.136719 308.394531 105.472656 309.734375 C 106.816406 311.078125 108.589844 311.808594 110.488281 311.808594 C 112.382812 311.808594 114.15625 311.070312 115.5 309.734375 L 138.972656 286.269531 C 140.316406 284.925781 141.046875 283.152344 141.046875 281.257812 C 141.046875 279.363281 140.308594 277.585938 138.972656 276.242188 C 137.597656 274.859375 135.777344 274.171875 133.960938 274.171875 Z M 133.960938 274.171875 " fill-opacity="1" fill-rule="nonzero"/><path fill="#000000" d="M 133.339844 329.523438 C 129.175781 329.523438 125.257812 327.898438 122.316406 324.960938 C 119.375 322.019531 117.753906 318.101562 117.753906 313.941406 C 117.753906 309.777344 119.375 305.859375 122.316406 302.921875 C 123.972656 301.265625 126.667969 301.265625 128.324219 302.921875 C 129.980469 304.578125 129.980469 307.269531 128.324219 308.929688 C 126.980469 310.269531 126.25 312.046875 126.25 313.941406 C 126.25 315.835938 126.992188 317.609375 128.324219 318.953125 C 129.667969 320.296875 131.445312 321.027344 133.339844 321.027344 C 135.234375 321.027344 137.011719 320.285156 138.351562 318.953125 L 155.011719 302.300781 C 157.773438 299.539062 157.773438 295.035156 155.011719 292.277344 C 152.25 289.515625 147.753906 289.515625 144.980469 292.277344 C 143.324219 293.933594 140.632812 293.933594 138.972656 292.277344 C 137.316406 290.617188 137.316406 287.925781 138.972656 286.269531 C 145.050781 280.195312 154.941406 280.195312 161.019531 286.269531 C 167.09375 292.34375 167.09375 302.234375 161.019531 308.308594 L 144.363281 324.960938 C 141.421875 327.898438 137.503906 329.523438 133.339844 329.523438 Z M 133.339844 329.523438 " fill-opacity="1" fill-rule="nonzero"/><path fill="#000000" d="M 230.453125 154.105469 C 229.558594 154.105469 228.65625 153.824219 227.894531 153.25 C 226.023438 151.828125 225.648438 149.171875 227.070312 147.300781 C 239.265625 131.203125 245.707031 111.914062 245.707031 91.550781 L 245.707031 55.46875 L 187.457031 32.828125 L 129.21875 55.460938 L 129.21875 91.542969 C 129.21875 110.472656 134.851562 128.636719 145.515625 144.074219 C 146.851562 146 146.367188 148.652344 144.4375 149.984375 C 142.507812 151.320312 139.859375 150.835938 138.523438 148.90625 C 126.871094 132.050781 120.710938 112.214844 120.710938 91.550781 L 120.710938 52.5625 C 120.710938 50.8125 121.789062 49.242188 123.421875 48.605469 L 185.910156 24.324219 C 186.90625 23.941406 188 23.941406 188.988281 24.324219 L 251.476562 48.605469 C 253.109375 49.242188 254.1875 50.8125 254.1875 52.5625 L 254.1875 91.550781 C 254.1875 113.785156 247.152344 134.835938 233.832031 152.433594 C 233 153.519531 231.734375 154.105469 230.453125 154.105469 Z M 230.453125 154.105469 " fill-opacity="1" fill-rule="nonzero"/><path fill="#000000" d="M 208.578125 146.519531 C 207.546875 146.519531 206.519531 146.152344 205.703125 145.40625 C 203.96875 143.816406 203.859375 141.132812 205.441406 139.410156 C 217.457031 126.308594 224.078125 109.316406 224.078125 91.550781 L 224.078125 70.25 L 187.457031 56.011719 L 150.835938 70.242188 L 150.835938 91.542969 C 150.835938 108.449219 156.898438 124.8125 167.902344 137.632812 C 169.433594 139.417969 169.226562 142.09375 167.445312 143.621094 C 165.667969 145.152344 162.980469 144.949219 161.453125 143.164062 C 149.121094 128.804688 142.332031 110.472656 142.332031 91.535156 L 142.332031 67.328125 C 142.332031 65.578125 143.410156 64.007812 145.042969 63.371094 L 185.910156 47.492188 C 186.90625 47.109375 188 47.109375 188.988281 47.492188 L 229.855469 63.371094 C 231.488281 64.007812 232.566406 65.578125 232.566406 67.328125 L 232.566406 91.535156 C 232.566406 111.429688 225.15625 130.460938 211.703125 145.132812 C 210.871094 146.050781 209.722656 146.519531 208.578125 146.519531 Z M 208.578125 146.519531 " fill-opacity="1" fill-rule="nonzero"/><path fill="#000000" d="M 179.136719 119.324219 C 178.050781 119.324219 176.960938 118.90625 176.128906 118.082031 L 164.300781 106.257812 C 162.640625 104.601562 162.640625 101.90625 164.300781 100.25 C 165.957031 98.59375 168.648438 98.59375 170.308594 100.25 L 179.136719 109.078125 L 204.609375 83.617188 C 206.265625 81.957031 208.957031 81.957031 210.617188 83.617188 C 212.273438 85.273438 212.273438 87.964844 210.617188 89.621094 L 182.136719 118.09375 C 181.3125 118.90625 180.226562 119.324219 179.136719 119.324219 Z M 179.136719 119.324219 " fill-opacity="1" fill-rule="nonzero"/></svg>