<svg xmlns="http://www.w3.org/2000/svg" xmlns:xlink="http://www.w3.org/1999/xlink" width="500" zoomAndPan="magnify" viewBox="0 0 375 374.999991" height="500" preserveAspectRatio="xMidYMid meet" version="1.0"><path fill="#000000" d="M 97.304688 105.164062 C 126.199219 105.164062 149.699219 81.660156 149.699219 52.769531 C 149.699219 23.878906 126.199219 0.375 97.304688 0.375 C 68.414062 0.375 44.910156 23.878906 44.910156 52.769531 C 44.910156 81.660156 68.414062 105.164062 97.304688 105.164062 Z M 97.304688 15.34375 C 117.941406 15.34375 134.730469 32.132812 134.730469 52.769531 C 134.730469 73.40625 117.941406 90.195312 97.304688 90.195312 C 76.667969 90.195312 59.878906 73.40625 59.878906 52.769531 C 59.878906 32.132812 76.667969 15.34375 97.304688 15.34375 Z M 97.304688 15.34375 " fill-opacity="1" fill-rule="nonzero"/><path fill="#000000" d="M 157.1875 120.132812 L 37.425781 120.132812 C 16.789062 120.132812 0 136.921875 0 157.558594 L 0 247.378906 C 0 251.519531 3.351562 254.867188 7.484375 254.867188 L 44.910156 254.867188 L 44.910156 367.140625 C 44.910156 371.28125 48.261719 374.625 52.394531 374.625 L 142.214844 374.625 C 146.347656 374.625 149.699219 371.28125 149.699219 367.140625 L 149.699219 254.867188 L 187.125 254.867188 C 191.257812 254.867188 194.609375 251.519531 194.609375 247.378906 L 194.609375 157.558594 C 194.609375 136.921875 177.820312 120.132812 157.1875 120.132812 Z M 179.640625 239.894531 L 149.699219 239.894531 L 149.699219 187.5 C 149.699219 183.367188 146.347656 180.015625 142.214844 180.015625 C 138.082031 180.015625 134.730469 183.367188 134.730469 187.5 L 134.730469 359.65625 L 104.789062 359.65625 L 104.789062 262.351562 C 104.789062 258.210938 101.4375 254.867188 97.304688 254.867188 C 93.171875 254.867188 89.820312 258.210938 89.820312 262.351562 L 89.820312 359.65625 L 59.878906 359.65625 L 59.878906 187.5 C 59.878906 183.367188 56.527344 180.015625 52.394531 180.015625 C 48.261719 180.015625 44.910156 183.367188 44.910156 187.5 L 44.910156 239.894531 L 14.96875 239.894531 L 14.96875 157.558594 C 14.96875 145.179688 25.042969 135.105469 37.425781 135.105469 L 157.1875 135.105469 C 169.566406 135.105469 179.640625 145.179688 179.640625 157.558594 Z M 179.640625 239.894531 " fill-opacity="1" fill-rule="nonzero"/><path fill="#000000" d="M 276.945312 45.285156 L 247.007812 45.285156 C 242.867188 45.285156 239.519531 48.636719 239.519531 52.769531 C 239.519531 56.902344 242.867188 60.253906 247.007812 60.253906 L 276.945312 60.253906 C 281.085938 60.253906 284.429688 56.902344 284.429688 52.769531 C 284.429688 48.636719 281.085938 45.285156 276.945312 45.285156 Z M 276.945312 45.285156 " fill-opacity="1" fill-rule="nonzero"/><path fill="#000000" d="M 331.535156 73.03125 C 332.941406 74.445312 334.851562 75.222656 336.828125 75.222656 C 337.066406 75.222656 337.3125 75.21875 337.566406 75.1875 C 339.796875 74.96875 341.8125 73.757812 343.054688 71.894531 L 372.992188 26.984375 C 375.292969 23.546875 374.363281 18.890625 370.921875 16.601562 C 367.46875 14.304688 362.820312 15.230469 360.539062 18.675781 L 335.667969 55.988281 L 327.148438 47.476562 C 324.222656 44.550781 319.492188 44.550781 316.5625 47.476562 C 313.636719 50.402344 313.636719 55.132812 316.5625 58.0625 Z M 331.535156 73.03125 " fill-opacity="1" fill-rule="nonzero"/><path fill="#000000" d="M 276.945312 135.105469 L 247.007812 135.105469 C 242.867188 135.105469 239.519531 138.457031 239.519531 142.589844 C 239.519531 146.722656 242.867188 150.074219 247.007812 150.074219 L 276.945312 150.074219 C 281.085938 150.074219 284.429688 146.722656 284.429688 142.589844 C 284.429688 138.457031 281.085938 135.105469 276.945312 135.105469 Z M 276.945312 135.105469 " fill-opacity="1" fill-rule="nonzero"/><path fill="#000000" d="M 360.539062 108.496094 L 335.667969 145.808594 L 327.148438 137.296875 C 324.222656 134.371094 319.492188 134.371094 316.5625 137.296875 C 313.636719 140.222656 313.636719 144.957031 316.5625 147.882812 L 331.535156 162.851562 C 332.941406 164.265625 334.851562 165.042969 336.828125 165.042969 C 337.066406 165.042969 337.3125 165.039062 337.566406 165.007812 C 339.796875 164.789062 341.8125 163.578125 343.054688 161.714844 L 372.992188 116.804688 C 375.292969 113.367188 374.363281 108.710938 370.921875 106.421875 C 367.46875 104.125 362.820312 105.050781 360.539062 108.496094 Z M 360.539062 108.496094 " fill-opacity="1" fill-rule="nonzero"/><path fill="#000000" d="M 276.945312 224.925781 L 247.007812 224.925781 C 242.867188 224.925781 239.519531 228.269531 239.519531 232.410156 C 239.519531 236.550781 242.867188 239.894531 247.007812 239.894531 L 276.945312 239.894531 C 281.085938 239.894531 284.429688 236.550781 284.429688 232.410156 C 284.429688 228.269531 281.085938 224.925781 276.945312 224.925781 Z M 276.945312 224.925781 " fill-opacity="1" fill-rule="nonzero"/><path fill="#000000" d="M 360.539062 198.316406 L 335.667969 235.628906 L 327.148438 227.109375 C 324.222656 224.183594 319.492188 224.183594 316.5625 227.109375 C 313.636719 230.039062 313.636719 234.769531 316.5625 237.695312 L 331.535156 252.664062 C 332.941406 254.085938 334.851562 254.867188 336.828125 254.867188 C 337.066406 254.867188 337.3125 254.851562 337.566406 254.828125 C 339.796875 254.609375 341.8125 253.398438 343.054688 251.535156 L 372.992188 206.625 C 375.292969 203.179688 374.363281 198.539062 370.921875 196.242188 C 367.46875 193.953125 362.820312 194.878906 360.539062 198.316406 Z M 360.539062 198.316406 " fill-opacity="1" fill-rule="nonzero"/><path fill="#000000" d="M 276.945312 314.746094 L 247.007812 314.746094 C 242.867188 314.746094 239.519531 318.089844 239.519531 322.230469 C 239.519531 326.371094 242.867188 329.714844 247.007812 329.714844 L 276.945312 329.714844 C 281.085938 329.714844 284.429688 326.371094 284.429688 322.230469 C 284.429688 318.089844 281.085938 314.746094 276.945312 314.746094 Z M 276.945312 314.746094 " fill-opacity="1" fill-rule="nonzero"/><path fill="#000000" d="M 360.539062 288.136719 L 335.667969 325.449219 L 327.148438 316.929688 C 324.222656 314.003906 319.492188 314.003906 316.5625 316.929688 C 313.636719 319.859375 313.636719 324.589844 316.5625 327.515625 L 331.535156 342.484375 C 332.941406 343.90625 334.851562 344.6875 336.828125 344.6875 C 337.066406 344.6875 337.3125 344.671875 337.566406 344.648438 C 339.796875 344.429688 341.8125 343.21875 343.054688 341.355469 L 372.992188 296.445312 C 375.292969 293 374.363281 288.359375 370.921875 286.0625 C 367.46875 283.765625 362.820312 284.691406 360.539062 288.136719 Z M 360.539062 288.136719 " fill-opacity="1" fill-rule="nonzero"/></svg>